<svg width="16" height="16" viewBox="0 0 16 16" fill="none" xmlns="http://www.w3.org/2000/svg">
<path fill-rule="evenodd" clip-rule="evenodd" d="M8.33741 0.0244211C8.31608 0.0220134 8.29478 0.0193191 8.27346 0.0166233C8.20778 0.00831885 8.14199 0 8.07523 0C8.06139 0 8.04771 0.00185563 8.03405 0.00370698C8.02224 0.0053089 8.01045 0.00690761 7.9986 0.00729825C7.97722 0.00690704 7.95595 0.00530429 7.93467 0.00370006C7.91014 0.00185101 7.88558 0 7.86078 0C3.52702 0 0.00112915 3.52618 0.00112915 7.85965C0.00112915 12.1937 3.52702 15.7193 7.86078 15.7193C7.8857 15.7193 7.91038 15.7175 7.93499 15.7157C7.95611 15.7142 7.97719 15.7127 7.99832 15.7123C8.0103 15.7127 8.02216 15.7142 8.03401 15.7157C8.04771 15.7175 8.06139 15.7193 8.07523 15.7193C8.14549 15.7193 8.21467 15.7104 8.28378 15.7016L8.31513 15.6976L8.33741 15.6949C12.4491 15.4467 15.7204 12.0328 15.7204 7.85965C15.7204 3.68646 12.4491 0.272842 8.33741 0.0244211ZM5.50794 1.40239C4.71187 2.3214 4.06513 3.64098 3.71004 5.19944C2.60576 5.07958 1.93937 4.94007 1.67074 4.87551C2.45113 3.26408 3.82695 2.0188 5.50794 1.40239ZM1.29881 5.79088C1.0925 6.44379 0.980217 7.13881 0.980217 7.85965C0.981379 8.70648 1.13996 9.54572 1.44787 10.3346C1.76253 10.2585 2.46373 10.1128 3.60197 9.98933C3.48127 9.31312 3.41025 8.60154 3.41025 7.85965C3.41086 7.29297 3.45091 6.72702 3.53011 6.16589C2.20323 6.01853 1.48632 5.8414 1.29881 5.79088ZM1.87566 11.2418C2.23159 11.166 2.86934 11.0512 3.81194 10.9527C4.18274 12.3248 4.78597 13.4844 5.5085 14.3175C3.97127 13.755 2.68366 12.6651 1.87509 11.2418H1.87566ZM4.70766 10.8688C5.21601 12.8376 6.45615 14.2981 7.29825 14.6507V10.7658C6.45615 10.7759 5.4386 10.8146 4.70766 10.8688ZM7.29825 9.78723C6.45615 9.79789 5.31004 9.84112 4.52857 9.90175C4.42106 9.25333 4.39046 8.5673 4.39046 7.85965C4.39046 7.30947 4.40113 6.77389 4.46766 6.25656C5.2612 6.31944 6.45615 6.36463 7.29825 6.37586V9.78695V9.78723ZM4.60239 5.28646C5.35523 5.344 6.45615 5.38667 7.29825 5.39705V5.39677V1.06891C6.45615 1.4473 5.07257 3.09839 4.60239 5.28646ZM14.0255 4.82161C13.872 4.86877 13.25 5.04225 12.0197 5.18793C11.742 3.71144 11.241 2.45333 10.5875 1.54498C12.0856 2.19425 13.3039 3.36309 14.0255 4.82133V4.82161ZM11.1121 5.28505C10.651 3.06975 9.26316 1.40379 8.42106 1.05432V5.39733C9.26316 5.38695 10.3714 5.344 11.1121 5.28505ZM8.42106 6.37586C9.26316 6.36491 10.4435 6.3186 11.2272 6.25347C11.2918 6.77165 11.3081 7.30807 11.3081 7.85965C11.3081 8.56814 11.2828 9.2553 11.1784 9.90456C10.4067 9.84225 9.26316 9.79733 8.42106 9.78723V6.37586ZM8.42106 10.7658V14.6653V14.6655C9.26316 14.3394 10.51 12.8662 11.0097 10.871C10.2883 10.8154 9.26316 10.7759 8.42106 10.7658ZM10.5875 14.1749C11.1764 13.3564 11.6455 12.2577 11.9349 10.9673C12.9027 11.0787 13.5124 11.2084 13.8198 11.2859C13.0797 12.5703 11.9466 13.583 10.5875 14.1749ZM12.1679 6.15523C12.3156 7.43421 12.2957 8.72699 12.1089 10.0008L12.1092 10.0006C13.3039 10.1409 13.9834 10.3099 14.2538 10.3888C14.5653 9.60505 14.7422 8.75312 14.7422 7.85965C14.7418 6.97649 14.5702 6.10179 14.2369 5.28393L14.395 5.73025C14.3506 5.74597 13.6808 5.97361 12.1679 6.15523Z" fill="white"/>
</svg>
